<svg width="44" height="44" viewBox="0 0 44 44" fill="none" xmlns="http://www.w3.org/2000/svg">
<path d="M37.63 0H16.1597V9.31749C16.1597 13.0981 13.0887 16.1682 9.30692 16.1682H0V37.6319C0 41.1444 2.85645 44 6.37001 44H37.63C41.1436 44 44 41.1444 44 37.6319V6.36807C44 2.85558 41.1436 0 37.63 0ZM16.562 29.5478C16.2134 30.0841 15.7306 30.4863 15.0869 30.7812C14.4566 31.0628 13.6922 31.2102 12.8339 31.2102H10.8625V33.9049H8.59616V24.145H12.8205C13.6788 24.145 14.4432 24.2925 15.0735 24.574C15.7172 24.8556 16.1999 25.2712 16.5486 25.8074C16.8973 26.3303 17.0582 26.9604 17.0582 27.6843C17.0582 28.4083 16.8839 29.025 16.5486 29.5612L16.562 29.5478ZM27.8269 31.5856C27.3709 32.323 26.7406 32.886 25.9226 33.3016C25.1045 33.7038 24.1658 33.9049 23.1064 33.9049H18.6675V24.145H23.1064C24.1658 24.145 25.1045 24.3461 25.9226 24.7483C26.7406 25.1505 27.3709 25.727 27.8269 26.4509C28.2828 27.1883 28.4974 28.0463 28.4974 29.025C28.4974 30.0037 28.2694 30.8617 27.8269 31.5856ZM37.5898 25.9415H32.4669V28.5155H36.9863V30.3254H32.4669V33.8781H30.2006V24.1182H37.5764V25.9281L37.5898 25.9415Z" fill="#0047AB"/>
<path d="M12.7132 25.9683H10.8759V29.3601H12.7132C13.3971 29.3601 13.9067 29.2127 14.2688 28.9177C14.6175 28.6228 14.7918 28.2072 14.7918 27.6709C14.7918 27.1347 14.6175 26.7057 14.2688 26.4107C13.9201 26.1158 13.3971 25.9683 12.7132 25.9683Z" fill="#0047AB"/>
<path d="M23.0125 25.9817H20.9473V32.0414H23.0125C23.9915 32.0414 24.7693 31.7733 25.3459 31.2237C25.9226 30.674 26.2176 29.9366 26.2176 29.0116C26.2176 28.0865 25.9226 27.3492 25.3459 26.7995C24.7693 26.2499 23.9915 25.9817 23.0125 25.9817Z" fill="#0047AB"/>
<path d="M13.4776 9.42474V0L0 13.4735H9.42761C11.6672 13.4735 13.4776 11.6636 13.4776 9.42474Z" fill="#0047AB"/>
</svg>
