<?xml version="1.0" encoding="UTF-8"?> <svg xmlns="http://www.w3.org/2000/svg" id="_Слой_2" data-name="Слой 2" viewBox="0 0 260.79 68.11"><defs><style> .cls-1 { fill: #fff; } </style></defs><g id="_Слой_1-2" data-name="Слой 1"><g><path class="cls-1" d="m110.58,28.49v29.22h-7.54v-3.45c-2.1,2.63-5.26,4.27-9.52,4.27-7.77,0-14.2-6.72-14.2-15.43s6.43-15.43,14.2-15.43c4.27,0,7.42,1.64,9.52,4.27v-3.45h7.54Zm-7.54,14.61c0-4.91-3.45-8.24-8.12-8.24s-8.06,3.33-8.06,8.24,3.45,8.24,8.06,8.24,8.12-3.33,8.12-8.24Z"></path><path class="cls-1" d="m207.45,46.71v8.87c0,2.21,1.79,4,4,4h0c2.21,0,4-1.79,4-4v-8.87c0-2.21-1.79-4-4-4h0c-2.21,0-4,1.79-4,4Z"></path><polygon class="cls-1" points="215.46 40.77 215.46 16.8 207.45 16.8 207.45 33.04 192.26 33.04 192.26 16.8 184.19 16.8 184.19 57.7 192.26 57.7 192.26 40.76 215.46 40.77"></polygon><polygon class="cls-1" points="19.93 68.1 41.14 68.11 41.14 60.38 19.93 60.38 19.93 68.1"></polygon><path class="cls-1" d="m0,37.26C0,25.27,9.41,15.98,21.22,15.98s21.28,9.29,21.28,21.28-9.47,21.27-21.28,21.27S0,49.18,0,37.26Zm34.43,0c0-7.89-5.79-13.44-13.21-13.44s-13.21,5.55-13.21,13.44,5.79,13.38,13.21,13.38,13.21-5.55,13.21-13.38Z"></path><path class="cls-1" d="m66.87,28.53v16.95c0,2.68-1.04,5.87-6,5.87s-6-3.19-6-5.87v-16.95h-7.59v16.72c0,7.92,5.46,13.24,13.6,13.24s13.65-5.32,13.65-13.24v-16.72h-7.64Z"></path><path class="cls-1" d="m124.58,57.66v-16.95c0-2.68,1.04-5.87,6-5.87s6,3.19,6,5.87v16.95h7.59v-16.72c0-7.92-5.46-13.24-13.6-13.24s-13.65,5.32-13.65,13.24v16.72h7.64Z"></path><path class="cls-1" d="m167.22,35.73v-7.25h-10.26v-11.73h-7.64v27.95c0,7.87,5.41,13.17,13.48,13.24.06,0-1.94,0,4.39,0v-7.14c-6.35,0-4.36,0-4.44,0-4.77-.09-5.78-3.23-5.78-5.87v-9.2h10.26Z"></path><path class="cls-1" d="m226.56,26.85c-2.21,0-4,1.79-4,4v9.5c0,2.21,1.79,4,4,4s4-1.79,4-4v-9.5c0-2.21-1.79-4-4-4Z"></path><path class="cls-1" d="m241.67,14.51c-2.21,0-4,1.79-4,4v9.5c0,2.21,1.79,4,4,4s4-1.79,4-4v-9.5c0-2.21-1.79-4-4-4Z"></path><path class="cls-1" d="m256.78,0c-2.21,0-4,1.79-4,4v9.5c0,2.21,1.79,4,4,4s4-1.79,4-4V4c0-2.21-1.79-4-4-4Z"></path><path class="cls-1" d="m226.56,45.05c-1.7,0-3.18-.92-4-2.28v12.81c0,2.21,1.79,4,4,4s4-1.79,4-4v-12.81c-.82,1.36-2.3,2.28-4,2.28Z"></path><path class="cls-1" d="m241.67,32.7c-1.7,0-3.18-.92-4-2.28v25.15c0,2.21,1.79,4,4,4s4-1.79,4-4v-25.15c-.82,1.36-2.3,2.28-4,2.28Z"></path><path class="cls-1" d="m256.78,18.2c-1.7,0-3.18-.92-4-2.27v39.66c0,2.21,1.79,4,4,4s4-1.79,4-4V15.92c-.82,1.36-2.3,2.28-4,2.28Z"></path></g></g></svg> 