<svg width="26" height="26" viewBox="0 0 26 26" fill="none" xmlns="http://www.w3.org/2000/svg">
<path d="M25.2502 21.6507L20.4015 16.802C19.9503 17.5074 19.4228 18.181 18.8064 18.8038C18.19 19.4266 17.5164 19.9476 16.811 20.3988L21.6597 25.2475C22.6511 26.2389 24.2588 26.2389 25.2565 25.2475C26.2479 24.2562 26.2479 22.6484 25.2565 21.6507H25.2502Z" fill="#0047AB"/>
<path d="M17.9038 3.06936C13.805 -1.02312 7.17057 -1.02312 3.07174 3.06936C-1.02709 7.16183 -1.02074 13.8026 3.07174 17.8951C7.16422 21.9875 13.805 21.9875 17.8974 17.8951C21.9899 13.8026 21.9899 7.16183 17.8974 3.06936H17.9038ZM15.1268 15.1244C12.5658 17.6853 8.40975 17.6853 5.84878 15.1244C3.2878 12.5634 3.2878 8.40737 5.84878 5.8464C8.40975 3.28542 12.5658 3.28542 15.1268 5.8464C17.6877 8.40737 17.6877 12.5634 15.1268 15.1244Z" fill="#1D1D1B"/>
</svg>
