<svg width="1945" height="611" viewBox="0 0 1945 611" fill="none" xmlns="http://www.w3.org/2000/svg">
<path d="M1 610L147.304 507.26L336.762 478.493L507.274 404.521L684.102 493.562L859.35 404.521L1019.34 375.753L1189.32 253.836L1354.05 404.521L1502.46 202.5L1698.5 148" stroke="#0047AB" stroke-width="2"/>
<circle cx="147.5" cy="507.5" r="6.5" fill="#0047AB"/>
<ellipse cx="340" cy="475.5" rx="6" ry="6.5" fill="#0047AB"/>
<circle cx="508.5" cy="405.5" r="6.5" fill="#0047AB"/>
<ellipse cx="685" cy="491.5" rx="6" ry="6.5" fill="#0047AB"/>
<circle cx="860.5" cy="405.5" r="6.5" fill="#0047AB"/>
<circle cx="1017.5" cy="375.5" r="6.5" fill="#0047AB"/>
<circle cx="1190.5" cy="254.5" r="6.5" fill="#0047AB"/>
<circle cx="1354" cy="402" r="6" fill="#0047AB"/>
<circle cx="1504.5" cy="201.5" r="6.5" fill="#0047AB"/>
<circle cx="1698.5" cy="147.5" r="6.5" fill="#0047AB"/>
<path d="M1699 148L1943.5 1" stroke="#0047AB" stroke-width="2" stroke-dasharray="4 4"/>
</svg>
