<svg width="24" height="24" viewBox="0 0 24 24" fill="none" xmlns="http://www.w3.org/2000/svg">
<g clip-path="url(#clip0_1094_2)">
<path d="M0.438849 0.457932C0.719928 0.176726 1.1011 0.0187526 1.49855 0.0187526C1.89599 0.0187526 2.27717 0.176726 2.55825 0.457932L11.9906 9.89743L21.423 0.457932C21.5613 0.314667 21.7267 0.200394 21.9095 0.12178C22.0924 0.0431667 22.2891 0.00178736 22.4881 5.66351e-05C22.6871 -0.00167409 22.8845 0.0362785 23.0687 0.1117C23.2529 0.187121 23.4203 0.298501 23.561 0.43934C23.7017 0.580179 23.813 0.747657 23.8884 0.932001C23.9637 1.11635 24.0017 1.31387 23.9999 1.51303C23.9982 1.7122 23.9569 1.90903 23.8783 2.09204C23.7998 2.27504 23.6856 2.44056 23.5424 2.57893L14.11 12.0184L23.5424 21.4579C23.8154 21.7408 23.9665 22.1197 23.9631 22.513C23.9597 22.9063 23.8021 23.2825 23.5242 23.5607C23.2463 23.8388 22.8703 23.9965 22.4773 23.9999C22.0843 24.0034 21.7057 23.8522 21.423 23.5789L11.9906 14.1394L2.55825 23.5789C2.27556 23.8522 1.89694 24.0034 1.50394 23.9999C1.11094 23.9965 0.735009 23.8388 0.457107 23.5607C0.179204 23.2825 0.02157 22.9063 0.0181549 22.513C0.0147399 22.1197 0.165817 21.7408 0.438849 21.4579L9.87123 12.0184L0.438849 2.57893C0.157854 2.29764 0 1.91618 0 1.51843C0 1.12069 0.157854 0.739224 0.438849 0.457932Z" fill="white"/>
</g>
<defs>
<clipPath id="clip0_1094_2">
<rect width="24" height="24" fill="white"/>
</clipPath>
</defs>
</svg>
