<svg width="241" height="63" viewBox="0 0 241 63" fill="none" xmlns="http://www.w3.org/2000/svg">
<path d="M102.193 26.3291V53.3327H95.2246V50.1444C93.2838 52.5749 90.3635 54.0905 86.4266 54.0905C79.246 54.0905 73.3037 47.8803 73.3037 39.8309C73.3037 31.7815 79.246 25.5713 86.4266 25.5713C90.3728 25.5713 93.2838 27.0869 95.2246 29.5174V26.3291H102.193ZM95.2246 39.8309C95.2246 35.2933 92.0362 32.2159 87.7205 32.2159C83.4047 32.2159 80.2718 35.2933 80.2718 39.8309C80.2718 44.3685 83.4601 47.4459 87.7205 47.4459C91.9808 47.4459 95.2246 44.3685 95.2246 39.8309Z" fill="#1D1D1B"/>
<path d="M191.715 43.1671V51.3643C191.715 53.4067 193.369 55.0609 195.412 55.0609C197.454 55.0609 199.108 53.4067 199.108 51.3643V43.1671C199.108 41.1247 197.454 39.4705 195.412 39.4705C193.369 39.4705 191.715 41.1247 191.715 43.1671Z" fill="#0047AB"/>
<path d="M199.117 37.6776V15.5257H191.715V30.5339H177.677V15.5257H170.219V53.3235H177.677V37.6684L199.117 37.6776Z" fill="#1D1D1B"/>
<path d="M18.4182 62.9347L38.0194 62.9439V55.8002H18.4182V62.9347Z" fill="#0047AB"/>
<path d="M0 34.4339C0 23.3533 8.69626 14.7679 19.6105 14.7679C30.5247 14.7679 39.2764 23.3533 39.2764 34.4339C39.2764 45.5144 30.5247 54.0905 19.6105 54.0905C8.69626 54.0905 0 45.4497 0 34.4339ZM31.8185 34.4339C31.8185 27.1423 26.4677 22.0133 19.6105 22.0133C12.7533 22.0133 7.40245 27.1423 7.40245 34.4339C7.40245 41.7254 12.7533 46.799 19.6105 46.799C26.4677 46.799 31.8185 41.67 31.8185 34.4339Z" fill="#1D1D1B"/>
<path d="M61.798 26.366V42.0304C61.798 44.5071 60.8368 47.4551 56.2531 47.4551C51.6693 47.4551 50.7082 44.5071 50.7082 42.0304V26.366H43.6938V41.8178C43.6938 49.1371 48.7397 54.0536 56.2623 54.0536C63.7849 54.0536 68.877 49.1371 68.877 41.8178V26.366H61.798Z" fill="#1D1D1B"/>
<path d="M115.131 53.2865V37.6222C115.131 35.1455 116.092 32.1974 120.676 32.1974C125.259 32.1974 126.221 35.1455 126.221 37.6222V53.2865H133.235V37.8347C133.235 30.5155 128.189 25.599 120.666 25.599C113.144 25.599 108.052 30.5155 108.052 37.8347V53.2865H115.131Z" fill="#1D1D1B"/>
<path d="M154.536 33.0199V26.3198H145.055V15.4795H137.994V41.3095C137.994 48.5826 142.994 53.4806 150.452 53.5453C150.507 53.5453 148.659 53.5453 154.509 53.5453V46.9468C148.64 46.9468 150.479 46.9468 150.405 46.9468C145.997 46.8637 145.064 43.9618 145.064 41.5221V33.0199H154.546H154.536Z" fill="#1D1D1B"/>
<path d="M209.376 24.8134C207.333 24.8134 205.679 26.4677 205.679 28.5101V37.2895C205.679 39.3319 207.333 40.9861 209.376 40.9861C211.418 40.9861 213.072 39.3319 213.072 37.2895V28.5101C213.072 26.4677 211.418 24.8134 209.376 24.8134Z" fill="#0047AB"/>
<path d="M223.339 13.4094C221.297 13.4094 219.643 15.0637 219.643 17.106V25.8855C219.643 27.9278 221.297 29.5821 223.339 29.5821C225.382 29.5821 227.036 27.9278 227.036 25.8855V17.106C227.036 15.0637 225.382 13.4094 223.339 13.4094Z" fill="#0047AB"/>
<path d="M237.303 0C235.261 0 233.607 1.65423 233.607 3.6966V12.476C233.607 14.5184 235.261 16.1726 237.303 16.1726C239.346 16.1726 241 14.5184 241 12.476V3.6966C241 1.65423 239.346 0 237.303 0Z" fill="#0047AB"/>
<path d="M209.376 41.633C207.805 41.633 206.437 40.7828 205.679 39.5259V51.3643C205.679 53.4067 207.333 55.0609 209.376 55.0609C211.418 55.0609 213.072 53.4067 213.072 51.3643V39.5259C212.314 40.7828 210.947 41.633 209.376 41.633Z" fill="#1D1D1B"/>
<path d="M223.339 30.2197C221.768 30.2197 220.401 29.3695 219.643 28.1127V51.3551C219.643 53.3974 221.297 55.0517 223.339 55.0517C225.382 55.0517 227.036 53.3974 227.036 51.3551V28.1127C226.278 29.3695 224.91 30.2197 223.339 30.2197Z" fill="#1D1D1B"/>
<path d="M237.303 16.8196C235.732 16.8196 234.364 15.9693 233.607 14.7217V51.3735C233.607 53.4159 235.261 55.0701 237.303 55.0701C239.346 55.0701 241 53.4159 241 51.3735V14.7125C240.242 15.9693 238.874 16.8196 237.303 16.8196Z" fill="#1D1D1B"/>
</svg>
