<svg width="133" height="35" viewBox="0 0 133 35" fill="none" xmlns="http://www.w3.org/2000/svg">
<path d="M56.3967 14.53V29.4325H52.5513V27.6729C51.4802 29.0143 49.8686 29.8507 47.696 29.8507C43.7332 29.8507 40.4539 26.4234 40.4539 21.9812C40.4539 17.5391 43.7332 14.1118 47.696 14.1118C49.8737 14.1118 51.4802 14.9482 52.5513 16.2896V14.53H56.3967ZM52.5513 21.9812C52.5513 19.4771 50.7917 17.7788 48.41 17.7788C46.0282 17.7788 44.2993 19.4771 44.2993 21.9812C44.2993 24.4854 46.0588 26.1837 48.41 26.1837C50.7611 26.1837 52.5513 24.4854 52.5513 21.9812Z" fill="white"/>
<path d="M105.801 23.8223V28.346C105.801 29.4732 106.714 30.3861 107.841 30.3861C108.968 30.3861 109.881 29.4732 109.881 28.346V23.8223C109.881 22.6951 108.968 21.7822 107.841 21.7822C106.714 21.7822 105.801 22.6951 105.801 23.8223Z" fill="white"/>
<path d="M109.886 20.7933V8.56836H105.801V16.8509H98.0542V8.56836H93.9385V29.4277H98.0542V20.7882L109.886 20.7933Z" fill="white"/>
<path d="M10.1644 34.7317L20.9817 34.7368V30.7944H10.1644V34.7317Z" fill="white"/>
<path d="M0 19.0029C0 12.8879 4.79918 8.1499 10.8224 8.1499C16.8456 8.1499 21.6754 12.8879 21.6754 19.0029C21.6754 25.1179 16.8456 29.8508 10.8224 29.8508C4.79918 29.8508 0 25.0822 0 19.0029ZM17.5596 19.0029C17.5596 14.9789 14.6066 12.1484 10.8224 12.1484C7.03812 12.1484 4.08517 14.9789 4.08517 19.0029C4.08517 23.0268 7.03812 25.8268 10.8224 25.8268C14.6066 25.8268 17.5596 22.9962 17.5596 19.0029Z" fill="white"/>
<path d="M34.1042 14.5503V23.1949C34.1042 24.5618 33.5738 26.1887 31.0442 26.1887C28.5145 26.1887 27.9841 24.5618 27.9841 23.1949V14.5503H24.1132V23.0776C24.1132 27.1169 26.8978 29.8301 31.0493 29.8301C35.2007 29.8301 38.0109 27.1169 38.0109 23.0776V14.5503H34.1042Z" fill="white"/>
<path d="M63.5368 29.4073V20.7626C63.5368 19.3958 64.0672 17.7689 66.5968 17.7689C69.1265 17.7689 69.6569 19.3958 69.6569 20.7626V29.4073H73.5279V20.88C73.5279 16.8407 70.7432 14.1274 66.5917 14.1274C62.4403 14.1274 59.6301 16.8407 59.6301 20.88V29.4073H63.5368Z" fill="white"/>
<path d="M85.2836 18.2224V14.5249H80.0509V8.54248H76.1544V22.7972C76.1544 26.811 78.9136 29.514 83.0293 29.5497C83.0599 29.5497 82.0399 29.5497 85.2683 29.5497V25.9083C82.0297 25.9083 83.0446 25.9083 83.0038 25.9083C80.5711 25.8624 80.056 24.2609 80.056 22.9145V18.2224H85.2887H85.2836Z" fill="white"/>
<path d="M115.547 13.6938C114.42 13.6938 113.507 14.6068 113.507 15.7339V20.579C113.507 21.7061 114.42 22.619 115.547 22.619C116.675 22.619 117.588 21.7061 117.588 20.579V15.7339C117.588 14.6068 116.675 13.6938 115.547 13.6938Z" fill="white"/>
<path d="M123.254 7.40039C122.127 7.40039 121.214 8.31331 121.214 9.44042V14.2855C121.214 15.4126 122.127 16.3255 123.254 16.3255C124.381 16.3255 125.294 15.4126 125.294 14.2855V9.44042C125.294 8.31331 124.381 7.40039 123.254 7.40039Z" fill="white"/>
<path d="M130.96 0C129.833 0 128.92 0.912915 128.92 2.04003V6.88511C128.92 8.01223 129.833 8.92515 130.96 8.92515C132.087 8.92515 133 8.01223 133 6.88511V2.04003C133 0.912915 132.087 0 130.96 0Z" fill="white"/>
<path d="M115.547 22.9758C114.68 22.9758 113.926 22.5066 113.507 21.813V28.3462C113.507 29.4733 114.42 30.3862 115.547 30.3862C116.675 30.3862 117.588 29.4733 117.588 28.3462V21.813C117.169 22.5066 116.414 22.9758 115.547 22.9758Z" fill="white"/>
<path d="M123.254 16.6775C122.387 16.6775 121.632 16.2083 121.214 15.5146V28.3414C121.214 29.4685 122.127 30.3814 123.254 30.3814C124.381 30.3814 125.294 29.4685 125.294 28.3414V15.5146C124.876 16.2083 124.121 16.6775 123.254 16.6775Z" fill="white"/>
<path d="M130.96 9.28196C130.093 9.28196 129.338 8.81275 128.92 8.12424V28.3512C128.92 29.4783 129.833 30.3912 130.96 30.3912C132.087 30.3912 133 29.4783 133 28.3512V8.11914C132.582 8.81275 131.827 9.28196 130.96 9.28196Z" fill="white"/>
</svg>
