<svg width="33" height="28" viewBox="0 0 33 28" fill="none" xmlns="http://www.w3.org/2000/svg">
<path d="M31.5488 12.0483C30.5388 18.5513 29.4412 25.6603 29.4412 25.6603C29.4412 25.6603 29.2719 27.655 27.8387 28C26.3031 27.9758 24.8191 27.427 23.6207 26.4402C23.2821 26.1793 17.2922 22.2798 15.1 20.3721C14.8764 20.217 14.6947 20.0062 14.5719 19.7594C14.449 19.5126 14.3891 19.2378 14.3975 18.9608C14.406 18.6837 14.4826 18.4134 14.6202 18.175C14.7579 17.9366 14.9521 17.7379 15.1847 17.5975C18.1894 14.7652 21.1421 11.8751 24.041 8.9287C25.0539 7.88784 26.0668 5.46119 21.8488 8.40977C15.859 12.6572 9.95377 16.6436 9.95377 16.6436C9.34558 16.9256 8.6883 17.0786 8.02124 17.0935C7.35418 17.1085 6.69103 16.985 6.07146 16.7306C3.54066 15.9507 0.589518 14.9099 0.589518 14.9099C0.589518 14.9099 -1.43629 13.611 2.02276 12.2102C2.02276 12.2102 16.6179 6.05511 21.6795 3.88941C23.6207 3.02254 30.2002 0.247928 30.2002 0.247928C30.2002 0.247928 33.2389 -0.966902 32.9849 1.98168C32.9003 3.20851 32.226 7.45591 31.5488 12.0483Z" fill="white"/>
</svg>
